# xmcd
#
# Track frame offsets:
#	150
#	23968
#	41136
#	74946
#	118167
#	154779
#	188247
#	203286
#	221354
#	237888
#	253479
#	275122
#	292384
#	310315
#
# Disc length: 4356 seconds
#
# Revision: 0
# Processed by: cddbd v1.5.1PL2 Copyright (c) Steve Scherf et al.
# Submitted via: EasyCDDAExtractor 9.0.0.1
#
DISCID=e711020e
DTITLE=Various Artist - DMC 2006-02-03
DYEAR=2006
DGENRE=Dance
TTITLE0=TABASSCO VS SPREAD'N'LICK - ROCK DA GEE(EXTENDED MIX)
TTITLE1=ILONA - C'EST LA VACANCES(RADIO EDIT)
TTITLE2=ROUTE 1 FEAT JENNY FROST - CRASH LANDING(EXTENDED MIX)
TTITLE3=PAUL JOHNSON - SHE GOT ON ME(ERIC KUPPER REMIX)
TTITLE4=ULTRAPOPPER - REALIZE(CLUB MIX)
TTITLE5=TEXAS FEAT PAUL BUCHANAN - SLEEP(BIMBO JONES MIX)
TTITLE6=JEALOUSY - LUCY(LIVE SAVER REMIX)
TTITLE7=RIHANNA - S.O.S.(RADIO EDIT)
TTITLE8=D'SOUND - BIRTHDAY(RADIO VERSION)
TTITLE9=CHAMBAO - POKITO A POKO(ALBUM VERSION)
TTITLE10=NOTORIUS B.I.G. FEAT DIDDY NELLY JAGGED EDGE and AVERY STORM - NASTY GI
TTITLE10=RL(ALBUM VERSION)
TTITLE11=THE PUSSYCAT DOLLS FEAT WILL I AM - BEEP(ALBUM VERSION)
TTITLE12=MARC TERENZI - CAN'T BREATHE WITHOUT YOU)
TTITLE13=KELLY CLARKSON - BECAUSE OF YOU
EXTD=
EXTT0=
EXTT1=
EXTT2=
EXTT3=
EXTT4=
EXTT5=
EXTT6=
EXTT7=
EXTT8=
EXTT9=
EXTT10=
EXTT11=
EXTT12=
EXTT13=
PLAYORDER=
